/vscmnt/brussel_pixiu_data/_data_brussel/112/vsc11236/PredSimResults/SUBJ04mtu3D/worker7.mot
version=1
nRows=7
nColumns=50
inDegrees=yes
endheader
                time	         pelvis_tilt	         pelvis_list	     pelvis_rotation	           pelvis_tx	           pelvis_ty	           pelvis_tz	       hip_flexion_r	     hip_adduction_r	      hip_rotation_r	        knee_angle_r	       ankle_angle_r	         mtp_angle_r	       hip_flexion_l	     hip_adduction_l	      hip_rotation_l	        knee_angle_l	       ankle_angle_l	         mtp_angle_l	    lumbar_extension	      lumbar_bending	     lumbar_rotation	 ercspn_r/activation	 intobl_r/activation	 extobl_r/activation	    abd_r/activation	    add_r/activation	hamstrings_r/activation	bifemsh_r/activation	glut_max_r/activation	iliopsoas_r/activation	rect_fem_r/activation	  vasti_r/activation	gastroc_r/activation	 soleus_r/activation	tib_ant_r/activation	 ercspn_l/activation	 intobl_l/activation	 extobl_l/activation	    abd_l/activation	    add_l/activation	hamstrings_l/activation	bifemsh_l/activation	glut_max_l/activation	iliopsoas_l/activation	rect_fem_l/activation	  vasti_l/activation	gastroc_l/activation	 soleus_l/activation	tib_ant_l/activation	
          0.66110320	         -2.40282446	         -0.83573703	         -8.29381747	          0.62143701	          0.88052644	          0.01210219	        -12.42522791	         -0.33448261	         -9.18016228	         -8.45855863	         12.40540436	         21.71119323	         29.42409468	         -4.06801705	        -10.70642515	        -10.98781724	          4.68451110	          0.23688437	        -13.63049484	          3.58017949	          8.02778475	          0.03765097	          0.01000045	          0.01000059	          0.04968798	          0.01000735	          0.02139969	          0.17397414	          0.01514113	          0.01219409	          0.01000610	          0.01000154	          0.27133754	          0.25553791	          0.01000026	          0.03831747	          0.22335363	          0.01817581	          0.01000064	          0.29606673	          0.07287788	          0.04476895	          0.02880245	          0.15747375	          0.02597037	          0.02555668	          0.01001121	          0.01385912	          0.30844578	
          0.67432527	         -2.49513505	         -0.81617545	         -8.05235921	          0.63739159	          0.87827402	          0.01154308	        -13.10771865	         -0.48491027	         -9.84822284	         -9.03689109	         12.04217304	         23.16377567	         29.27483492	         -3.94337563	        -10.82802665	        -12.36449964	          4.42627550	          0.22453342	        -13.11453201	          2.97239807	          8.13579290	          0.04256503	          0.01000029	          0.01000162	          0.04071564	          0.01000730	          0.01754551	          0.14256019	          0.01240718	          0.01001713	          0.01000237	          0.01000159	          0.23767187	          0.24700054	          0.01000026	          0.03139894	          0.22732055	          0.01489381	          0.02608684	          0.24260620	          0.06883791	          0.03668824	          0.05155235	          0.12903807	          0.02128095	          0.02094433	          0.01220779	          0.01223933	          0.33743400	
          0.68754733	         -2.57268035	         -0.74112951	         -7.75771264	          0.65361455	          0.87628793	          0.01088465	        -13.69115861	         -0.70898657	        -10.55271555	         -9.84681935	         11.58092468	         24.64312483	         29.06912928	         -3.78778058	        -10.97622419	        -13.61721798	          3.94136215	          0.21687625	        -12.57903411	          2.28338759	          8.20988858	          0.04839454	          0.01000021	          0.01000065	          0.03336347	          0.01000344	          0.01438648	          0.11681825	          0.01016696	          0.01787829	          0.01000605	          0.01000143	          0.19475471	          0.23182694	          0.01000029	          0.02859897	          0.18627268	          0.01220451	          0.04624694	          0.21919165	          0.07088332	          0.03006697	          0.04224542	          0.10573715	          0.01743835	          0.08240261	          0.01000433	          0.01002951	          0.36899372	
          0.70076940	         -2.63638544	         -0.62735287	         -7.41208770	          0.66995245	          0.87476396	          0.01010499	        -14.10921030	         -1.00182396	        -11.29155336	        -10.98364664	         10.97198497	         26.15313169	         28.81326573	         -3.59871594	        -11.21908221	        -14.78529938	          3.45075253	          0.19353480	        -12.04797557	          1.53772947	          8.24823388	          0.05979722	          0.01000022	          0.01000064	          0.02733892	          0.01000334	          0.01181271	          0.09572438	          0.01000053	          0.01465288	          0.01000428	          0.01000101	          0.15958702	          0.21368988	          0.01000028	          0.03276574	          0.15263664	          0.01000112	          0.06801474	          0.19682846	          0.07040105	          0.02464137	          0.03462100	          0.08664377	          0.01428970	          0.14975369	          0.01000278	          0.01000123	          0.39716471	
          0.71399146	         -2.68685238	         -0.47540024	         -7.02818967	          0.68629973	          0.87387355	          0.00920234	        -14.30280806	         -1.37984369	        -12.05612077	        -12.52923664	         10.16616771	         27.69422296	         28.45039595	         -3.36156934	        -11.52906450	        -15.81757872	          3.17279613	          0.16889121	        -11.53443244	          0.74285305	          8.25040984	          0.08641489	          0.01000034	          0.01000059	          0.02240224	          0.01000542	          0.01873517	          0.07843940	          0.01000144	          0.01200866	          0.01000274	          0.01049782	          0.13076968	          0.17510965	          0.01000024	          0.03184478	          0.12507437	          0.01000093	          0.10060776	          0.17209724	          0.07017959	          0.02019609	          0.03632215	          0.07099817	          0.01170980	          0.19537675	          0.01000375	          0.01000190	          0.40206873	
          0.72721352	         -2.72552918	         -0.28488080	         -6.62227889	          0.70249038	          0.87377621	          0.00818121	        -14.20335616	         -1.86519842	        -12.83089715	        -14.57369290	          9.13278762	         29.21689171	         27.97650134	         -3.05772039	        -11.81694993	        -16.69063097	          3.12340663	          0.14848683	        -11.05609197	         -0.09541578	          8.22218895	          0.10787638	          0.01000063	          0.01000061	          0.01835700	          0.01001578	          0.06099290	          0.06427565	          0.01013737	          0.01000296	          0.01000139	          0.02062891	          0.10715601	          0.14348937	          0.01000023	          0.02629382	          0.10248914	          0.01000141	          0.12320706	          0.16185292	          0.06995094	          0.01655370	          0.03156698	          0.05817777	          0.01000131	          0.21800667	          0.01001302	          0.01002805	          0.39313697	
          0.74043559	         -2.75313404	         -0.06837499	         -6.20650966	          0.71841416	          0.87451098	          0.00705753	        -13.79063413	         -2.45887067	        -13.59948037	        -17.12458387	          7.83634905	         30.64145739	         27.39885872	         -2.68898628	        -12.01599619	        -17.39626165	          3.25680825	          0.13751117	        -10.62472173	         -0.95807309	          8.16812326	          0.10378208	          0.01000575	          0.01000063	          0.01504223	          0.08299443	          0.08200906	          0.05266959	          0.01220976	          0.01000234	          0.01000102	          0.01690441	          0.08780637	          0.11757885	          0.01000019	          0.02586743	          0.08398223	          0.01000332	          0.13201067	          0.17026298	          0.07433942	          0.01358446	          0.02586947	          0.04767240	          0.01000116	          0.22449455	          0.01000260	          0.01000105	          0.37026870	
